<svg width="24" height="25" viewBox="0 0 24 25" fill="none" xmlns="http://www.w3.org/2000/svg">
<path fill-rule="evenodd" clip-rule="evenodd" d="M16 3.25574H8C5.23858 3.25574 3 5.49432 3 8.25574V16.2557C3 19.0171 5.23858 21.2557 8 21.2557H16C18.7614 21.2557 21 19.0171 21 16.2557V8.25574C21 5.49432 18.7614 3.25574 16 3.25574ZM19.25 16.2557C19.2445 18.0483 17.7926 19.5002 16 19.5057H8C6.20735 19.5002 4.75549 18.0483 4.75 16.2557V8.25574C4.75549 6.46309 6.20735 5.01123 8 5.00574H16C17.7926 5.01123 19.2445 6.46309 19.25 8.25574V16.2557ZM16.75 8.50574C17.3023 8.50574 17.75 8.05802 17.75 7.50574C17.75 6.95346 17.3023 6.50574 16.75 6.50574C16.1977 6.50574 15.75 6.95346 15.75 7.50574C15.75 8.05802 16.1977 8.50574 16.75 8.50574ZM12 7.75574C9.51472 7.75574 7.5 9.77046 7.5 12.2557C7.5 14.741 9.51472 16.7557 12 16.7557C14.4853 16.7557 16.5 14.741 16.5 12.2557C16.5027 11.0614 16.0294 9.91531 15.1849 9.07082C14.3404 8.22633 13.1943 7.75308 12 7.75574ZM9.25 12.2557C9.25 13.7745 10.4812 15.0057 12 15.0057C13.5188 15.0057 14.75 13.7745 14.75 12.2557C14.75 10.7369 13.5188 9.50574 12 9.50574C10.4812 9.50574 9.25 10.7369 9.25 12.2557Z" fill="black"/>
</svg>
