<svg width="24" height="25" viewBox="0 0 24 25" fill="none" xmlns="http://www.w3.org/2000/svg">
<path fill-rule="evenodd" clip-rule="evenodd" d="M4.5 3.25574C3.67157 3.25574 3 3.92731 3 4.75574V19.7557C3 20.5841 3.67157 21.2557 4.5 21.2557H19.5C20.3284 21.2557 21 20.5841 21 19.7557V4.75574C21 3.92731 20.3284 3.25574 19.5 3.25574H4.5ZM8.52076 7.25846C8.52639 8.21471 7.81061 8.80393 6.96123 8.79971C6.16107 8.79549 5.46357 8.15846 5.46779 7.25987C5.47201 6.41471 6.13998 5.73549 7.00764 5.75518C7.88795 5.77487 8.52639 6.42034 8.52076 7.25846ZM12.2797 10.0175H9.75971H9.7583V18.5773H12.4217V18.3776C12.4217 17.9977 12.4214 17.6177 12.4211 17.2376C12.4203 16.2238 12.4194 15.2089 12.4246 14.1954C12.426 13.9493 12.4372 13.6934 12.5005 13.4585C12.7381 12.581 13.5271 12.0143 14.4074 12.1536C14.9727 12.2421 15.3467 12.5698 15.5042 13.1028C15.6013 13.436 15.6449 13.7946 15.6491 14.142C15.6605 15.1896 15.6589 16.2372 15.6573 17.2849C15.6567 17.6547 15.6561 18.0247 15.6561 18.3945V18.5759H18.328V18.3706C18.328 17.9186 18.3278 17.4667 18.3275 17.0148C18.327 15.8853 18.3264 14.7558 18.3294 13.6259C18.3308 13.1154 18.276 12.612 18.1508 12.1184C17.9638 11.3843 17.5771 10.7768 16.9485 10.3381C16.5027 10.0259 16.0133 9.82484 15.4663 9.80234C15.404 9.79975 15.3412 9.79636 15.2781 9.79295C14.9984 9.77783 14.7141 9.76247 14.4467 9.8164C13.6817 9.96968 13.0096 10.3198 12.5019 10.9371C12.4429 11.0079 12.3852 11.0798 12.2991 11.1871L12.2797 11.2114V10.0175ZM5.68164 18.5801H8.33242V10.0231H5.68164V18.5801Z" fill="black"/>
</svg>
