<svg width="523" height="181" viewBox="0 0 523 181" fill="none" xmlns="http://www.w3.org/2000/svg">
<path d="M416.208 27.7811L422.068 74.7678L460.405 102.559L413.419 108.419L385.627 146.756L379.767 99.7695L341.43 71.9783L388.417 66.1183L416.208 27.7811Z" fill="#2961AB"/>
<path d="M105.91 17.8445L103.493 78.1505L157.49 105.113L97.184 102.696L70.2215 156.693L72.6389 96.3866L18.6419 69.4241L78.9479 71.8415L105.91 17.8445Z" fill="#2961AB"/>
<path d="M175.124 27.9278L195.765 53.5804L227.631 45.2901L201.978 65.9316L210.268 97.7968L189.627 72.1443L157.762 80.4345L183.414 59.7931L175.124 27.9278Z" fill="#2961AB"/>
<path d="M214.938 119.135L199.031 134.26L206.292 154.974L191.167 139.067L170.452 146.328L186.36 131.203L179.099 110.488L194.224 126.396L214.938 119.135Z" fill="#2961AB"/>
<path d="M479.822 11.7457L490.337 36.2409L516.975 37.2439L492.48 47.7592L491.477 74.3972L480.962 49.902L454.324 48.899L478.819 38.3836L479.822 11.7457Z" fill="#2961AB"/>
<path d="M278.432 67.9246L297.73 106.769L341.098 105.99L302.253 125.288L303.032 168.656L283.734 129.811L240.366 130.59L279.211 111.292L278.432 67.9246Z" fill="#2961AB"/>
</svg>
