<svg width="418" height="493" viewBox="0 0 418 493" fill="none" xmlns="http://www.w3.org/2000/svg">
<path d="M278.758 35.3943L276.471 146.794L374.008 200.661L262.608 198.374L208.741 295.912L211.028 184.512L113.491 130.645L224.891 132.932L278.758 35.3943Z" fill="#2961AB"/>
<path d="M92.3736 223.926L104.588 289.308L167.72 310.245L102.338 322.459L81.4006 385.591L69.1864 320.209L6.05453 299.272L71.4365 287.058L92.3736 223.926Z" fill="#2961AB"/>
<path d="M341.274 271.965L361.145 312.644L406.361 314.929L365.682 334.801L363.396 380.016L343.525 339.337L298.309 337.052L338.988 317.18L341.274 271.965Z" fill="#2961AB"/>
<path d="M228.189 401.761L229.771 436.359L260.816 451.711L226.218 453.293L210.866 484.339L209.285 449.741L178.239 434.389L212.837 432.807L228.189 401.761Z" fill="#2961AB"/>
</svg>
