<svg width="116" height="20" viewBox="0 0 116 20" fill="none" xmlns="http://www.w3.org/2000/svg">
<path fill-rule="evenodd" clip-rule="evenodd" d="M31.0596 0.24585L21.1943 19.5317H11.9279L16.0565 11.5388H15.8713C12.4652 15.9604 7.38316 18.8711 0.14209 19.5317V11.6494C0.14209 11.6494 4.77438 11.3758 7.49757 8.51277H0.14209V0.246002H8.40886V7.0453L8.5944 7.04454L11.9725 0.246002H18.2245V7.00218L18.4099 7.00188L21.9148 0.24585H31.0596ZM84.8565 17.4029H87.5189V2.12086H84.8565V17.4029ZM70.1789 17.2469C70.7575 17.4874 71.3459 17.6077 71.9441 17.6077C72.9323 17.6077 73.8165 17.3672 74.5967 16.886C75.3768 16.405 75.9816 15.7418 76.4107 14.8966C76.8398 14.0449 77.0543 13.0793 77.0543 12.0001C77.0543 10.9208 76.8332 9.95536 76.3912 9.10365C75.949 8.25194 75.3346 7.59202 74.5479 7.1239C73.7612 6.64929 72.8672 6.41524 71.866 6.42173C71.2289 6.42173 70.6177 6.54527 70.0325 6.79233C69.4474 7.03939 68.9598 7.39048 68.5697 7.84559C68.5396 7.88024 68.5103 7.91523 68.4819 7.95058V2.13067H65.8098V17.403H68.4624L68.4571 15.9763C68.5257 16.0604 68.5991 16.1426 68.6769 16.2229C69.0995 16.6586 69.6002 16.9998 70.1789 17.2469ZM72.9095 14.7796C72.4739 15.0462 71.9765 15.1794 71.4174 15.1794C70.8647 15.1794 70.3576 15.0428 69.896 14.7698C69.4343 14.4902 69.0671 14.1099 68.7939 13.6288C68.5274 13.1477 68.3941 12.6015 68.3941 11.9903C68.3877 11.3792 68.5176 10.8331 68.7842 10.352C69.0573 9.86434 69.4246 9.48724 69.8863 9.22068C70.3478 8.94761 70.8583 8.81433 71.4174 8.82083C71.9765 8.81433 72.4739 8.94436 72.9095 9.21093C73.3516 9.47099 73.6897 9.84483 73.9238 10.3325C74.1643 10.8136 74.2846 11.3662 74.2846 11.9903C74.2846 12.6145 74.1643 13.1672 73.9238 13.6483C73.6897 14.1294 73.3516 14.5065 72.9095 14.7796ZM34.9166 3.04738H37.9594L40.6812 12.9877L43.5768 3.04738H46.1124L49.2527 12.7882L51.8664 3.04738H54.6555L50.54 17.403H47.9166L44.7233 7.88692L41.7921 17.403H39.1394L34.9166 3.04738ZM59.1492 17.6565C58.0893 17.663 57.1336 17.4289 56.2819 16.9543C55.4367 16.4732 54.7703 15.8067 54.2826 14.955C53.8016 14.1034 53.561 13.1314 53.561 12.039C53.561 10.9793 53.8081 10.0203 54.3022 9.16212C54.7963 8.3039 55.4659 7.63424 56.3112 7.15312C57.1564 6.672 58.0991 6.43144 59.1393 6.43144C60.3097 6.43144 61.3336 6.6915 62.2114 7.21163C63.0956 7.73176 63.7555 8.4697 64.1911 9.42543C64.6332 10.3747 64.7925 11.4637 64.669 12.6925H56.3154C56.3387 13.182 56.4609 13.6274 56.6818 14.0286C56.9289 14.4707 57.2734 14.8152 57.7155 15.0623C58.1577 15.3094 58.6517 15.4329 59.1979 15.4329C59.614 15.4264 60.0009 15.3549 60.3584 15.2184C60.7161 15.0754 61.0183 14.8836 61.2654 14.6429C61.519 14.4024 61.6978 14.1294 61.8018 13.8238H64.591C64.4219 14.5715 64.0839 15.2379 63.5768 15.823C63.0696 16.4017 62.4325 16.8535 61.6652 17.1786C60.8981 17.5037 60.0594 17.663 59.1492 17.6565ZM56.6915 10.0106C56.5358 10.2823 56.4277 10.5748 56.3676 10.8883H61.9051C61.865 10.4923 61.7427 10.1315 61.5385 9.80578C61.3044 9.42218 60.9858 9.12636 60.5828 8.91831C60.1797 8.70375 59.7246 8.59648 59.2174 8.59648C58.6778 8.59648 58.1869 8.72001 57.7448 8.96707C57.3027 9.21413 56.9516 9.56197 56.6915 10.0106ZM79.0148 6.65577C79.0148 5.78456 79.2131 5.01086 79.6097 4.33469C80.0062 3.65203 80.5622 3.12214 81.2774 2.74505C81.999 2.36145 82.841 2.16315 83.8032 2.15016V4.51999C83.3546 4.52649 82.971 4.62076 82.6525 4.80281C82.3404 4.97836 82.0998 5.23517 81.9308 5.57325C81.7752 5.8845 81.6912 6.24534 81.6789 6.65577H83.7447V8.90858H81.6773V17.403H79.0148V8.90858H77.2984V6.65577H79.0148ZM94.2867 17.6369C93.2009 17.6369 92.2289 17.3996 91.3707 16.925C90.519 16.4439 89.8493 15.7808 89.3617 14.9355C88.8805 14.0838 88.64 13.1183 88.64 12.039C88.64 10.9533 88.8805 9.98453 89.3617 9.13281C89.8493 8.27459 90.519 7.60818 91.3707 7.13357C92.2289 6.65895 93.2009 6.42164 94.2867 6.42164C95.3789 6.42164 96.3542 6.65895 97.2123 7.13357C98.0771 7.60818 98.7501 8.27135 99.2311 9.12306C99.7122 9.97477 99.9561 10.9468 99.9626 12.039C99.9561 13.1183 99.7122 14.0838 99.2311 14.9355C98.7565 15.7808 98.0868 16.4439 97.2221 16.925C96.3574 17.3996 95.3789 17.6369 94.2867 17.6369ZM94.2867 15.1891C94.8588 15.1891 95.3659 15.059 95.808 14.799C96.2502 14.5324 96.5914 14.1618 96.8321 13.6872C97.0726 13.2061 97.1928 12.6567 97.1928 12.039C97.1928 11.4149 97.0726 10.8622 96.8321 10.3811C96.5914 9.9 96.2502 9.52942 95.808 9.26935C95.3659 9.00278 94.8588 8.8695 94.2867 8.8695C93.7211 8.8695 93.2172 9.00278 92.775 9.26935C92.3395 9.52942 92.0013 9.9 91.7608 10.3811C91.5202 10.8622 91.4032 11.4149 91.4097 12.039C91.4097 12.6567 91.53 13.2061 91.7705 13.6872C92.0176 14.1618 92.3556 14.5324 92.7848 14.799C93.2204 15.059 93.7211 15.1891 94.2867 15.1891ZM102.84 6.65575H99.8749L103.083 17.403H105.678L107.788 10.5387L110.066 17.403H112.621L115.84 6.65575H113.158L111.332 13.3452L109.315 6.65575H106.721L104.713 13.4925L102.84 6.65575Z" fill="black"/>
<path d="M31.0596 0.24585L21.1943 19.5317H11.9279L16.0565 11.5388H15.8713C12.4652 15.9604 7.38316 18.8711 0.14209 19.5317V11.6494C0.14209 11.6494 4.77438 11.3758 7.49757 8.51277H0.14209V0.246002H8.40886V7.0453L8.5944 7.04454L11.9725 0.246002H18.2245V7.00218L18.4099 7.00188L21.9148 0.24585H31.0596ZM84.8565 17.4029H87.5189V2.12086H84.8565V17.4029ZM70.1789 17.2469C70.7575 17.4874 71.3459 17.6077 71.9441 17.6077C72.9323 17.6077 73.8165 17.3672 74.5967 16.886C75.3768 16.405 75.9816 15.7418 76.4107 14.8966C76.8398 14.0449 77.0543 13.0793 77.0543 12.0001C77.0543 10.9208 76.8332 9.95536 76.3912 9.10365C75.949 8.25194 75.3346 7.59202 74.5479 7.1239C73.7612 6.64929 72.8672 6.41524 71.866 6.42173C71.2289 6.42173 70.6177 6.54527 70.0325 6.79233C69.4474 7.03939 68.9598 7.39048 68.5697 7.84559C68.5396 7.88024 68.5103 7.91523 68.4819 7.95058V2.13067H65.8098V17.403H68.4624L68.4571 15.9763C68.5257 16.0604 68.5991 16.1426 68.6769 16.2229C69.0995 16.6586 69.6002 16.9998 70.1789 17.2469ZM72.9095 14.7796C72.4739 15.0462 71.9765 15.1794 71.4174 15.1794C70.8647 15.1794 70.3576 15.0428 69.896 14.7698C69.4343 14.4902 69.0671 14.1099 68.7939 13.6288C68.5274 13.1477 68.3941 12.6015 68.3941 11.9903C68.3877 11.3792 68.5176 10.8331 68.7842 10.352C69.0573 9.86434 69.4246 9.48724 69.8863 9.22068C70.3478 8.94761 70.8583 8.81433 71.4174 8.82083C71.9765 8.81433 72.4739 8.94436 72.9095 9.21093C73.3516 9.47099 73.6897 9.84483 73.9238 10.3325C74.1643 10.8136 74.2846 11.3662 74.2846 11.9903C74.2846 12.6145 74.1643 13.1672 73.9238 13.6483C73.6897 14.1294 73.3516 14.5065 72.9095 14.7796ZM34.9166 3.04738H37.9594L40.6812 12.9877L43.5768 3.04738H46.1124L49.2527 12.7882L51.8664 3.04738H54.6555L50.54 17.403H47.9166L44.7233 7.88692L41.7921 17.403H39.1394L34.9166 3.04738ZM59.1492 17.6565C58.0893 17.663 57.1336 17.4289 56.2819 16.9543C55.4367 16.4732 54.7703 15.8067 54.2826 14.955C53.8016 14.1034 53.561 13.1314 53.561 12.039C53.561 10.9793 53.8081 10.0203 54.3022 9.16212C54.7963 8.3039 55.4659 7.63424 56.3112 7.15312C57.1564 6.672 58.0991 6.43144 59.1393 6.43144C60.3097 6.43144 61.3336 6.6915 62.2114 7.21163C63.0956 7.73176 63.7555 8.4697 64.1911 9.42543C64.6332 10.3747 64.7925 11.4637 64.669 12.6925H56.3154C56.3387 13.182 56.4609 13.6274 56.6818 14.0286C56.9289 14.4707 57.2734 14.8152 57.7155 15.0623C58.1577 15.3094 58.6517 15.4329 59.1979 15.4329C59.614 15.4264 60.0009 15.3549 60.3584 15.2184C60.7161 15.0754 61.0183 14.8836 61.2654 14.6429C61.519 14.4024 61.6978 14.1294 61.8018 13.8238H64.591C64.4219 14.5715 64.0839 15.2379 63.5768 15.823C63.0696 16.4017 62.4325 16.8535 61.6652 17.1786C60.8981 17.5037 60.0594 17.663 59.1492 17.6565ZM56.6915 10.0106C56.5358 10.2823 56.4277 10.5748 56.3676 10.8883H61.9051C61.865 10.4923 61.7427 10.1315 61.5385 9.80578C61.3044 9.42218 60.9858 9.12636 60.5828 8.91831C60.1797 8.70375 59.7246 8.59648 59.2174 8.59648C58.6778 8.59648 58.1869 8.72001 57.7448 8.96707C57.3027 9.21413 56.9516 9.56197 56.6915 10.0106ZM79.0148 6.65577C79.0148 5.78456 79.2131 5.01086 79.6097 4.33469C80.0062 3.65203 80.5622 3.12214 81.2774 2.74505C81.999 2.36145 82.841 2.16315 83.8032 2.15016V4.51999C83.3546 4.52649 82.971 4.62076 82.6525 4.80281C82.3404 4.97836 82.0998 5.23517 81.9308 5.57325C81.7752 5.8845 81.6912 6.24534 81.6789 6.65577H83.7447V8.90858H81.6773V17.403H79.0148V8.90858H77.2984V6.65577H79.0148ZM94.2867 17.6369C93.2009 17.6369 92.2289 17.3996 91.3707 16.925C90.519 16.4439 89.8493 15.7808 89.3617 14.9355C88.8805 14.0838 88.64 13.1183 88.64 12.039C88.64 10.9533 88.8805 9.98453 89.3617 9.13281C89.8493 8.27459 90.519 7.60818 91.3707 7.13357C92.2289 6.65895 93.2009 6.42164 94.2867 6.42164C95.3789 6.42164 96.3542 6.65895 97.2123 7.13357C98.0771 7.60818 98.7501 8.27135 99.2311 9.12306C99.7122 9.97477 99.9561 10.9468 99.9626 12.039C99.9561 13.1183 99.7122 14.0838 99.2311 14.9355C98.7565 15.7808 98.0868 16.4439 97.2221 16.925C96.3574 17.3996 95.3789 17.6369 94.2867 17.6369ZM94.2867 15.1891C94.8588 15.1891 95.3659 15.059 95.808 14.799C96.2502 14.5324 96.5914 14.1618 96.8321 13.6872C97.0726 13.2061 97.1928 12.6567 97.1928 12.039C97.1928 11.4149 97.0726 10.8622 96.8321 10.3811C96.5914 9.9 96.2502 9.52942 95.808 9.26935C95.3659 9.00278 94.8588 8.8695 94.2867 8.8695C93.7211 8.8695 93.2172 9.00278 92.775 9.26935C92.3395 9.52942 92.0013 9.9 91.7608 10.3811C91.5202 10.8622 91.4032 11.4149 91.4097 12.039C91.4097 12.6567 91.53 13.2061 91.7705 13.6872C92.0176 14.1618 92.3556 14.5324 92.7848 14.799C93.2204 15.059 93.7211 15.1891 94.2867 15.1891ZM102.84 6.65575H99.8749L103.083 17.403H105.678L107.788 10.5387L110.066 17.403H112.621L115.84 6.65575H113.158L111.332 13.3452L109.315 6.65575H106.721L104.713 13.4925L102.84 6.65575Z" fill="black"/>
<path fill-rule="evenodd" clip-rule="evenodd" d="M31.0596 0.24585L21.1943 19.5317H11.9279L16.0565 11.5388H15.8713C12.4652 15.9604 7.38316 18.8711 0.14209 19.5317V11.6494C0.14209 11.6494 4.77438 11.3758 7.49757 8.51277H0.14209V0.246002H8.40886V7.0453L8.5944 7.04454L11.9725 0.246002H18.2245V7.00218L18.4099 7.00188L21.9148 0.24585H31.0596ZM84.8565 17.4029H87.5189V2.12086H84.8565V17.4029ZM70.1789 17.2469C70.7575 17.4874 71.3459 17.6077 71.9441 17.6077C72.9323 17.6077 73.8165 17.3672 74.5967 16.886C75.3768 16.405 75.9816 15.7418 76.4107 14.8966C76.8398 14.0449 77.0543 13.0793 77.0543 12.0001C77.0543 10.9208 76.8332 9.95536 76.3912 9.10365C75.949 8.25194 75.3346 7.59202 74.5479 7.1239C73.7612 6.64929 72.8672 6.41524 71.866 6.42173C71.2289 6.42173 70.6177 6.54527 70.0325 6.79233C69.4474 7.03939 68.9598 7.39048 68.5697 7.84559C68.5396 7.88024 68.5103 7.91523 68.4819 7.95058V2.13067H65.8098V17.403H68.4624L68.4571 15.9763C68.5257 16.0604 68.5991 16.1426 68.6769 16.2229C69.0995 16.6586 69.6002 16.9998 70.1789 17.2469ZM72.9095 14.7796C72.4739 15.0462 71.9765 15.1794 71.4174 15.1794C70.8647 15.1794 70.3576 15.0428 69.896 14.7698C69.4343 14.4902 69.0671 14.1099 68.7939 13.6288C68.5274 13.1477 68.3941 12.6015 68.3941 11.9903C68.3877 11.3792 68.5176 10.8331 68.7842 10.352C69.0573 9.86434 69.4246 9.48724 69.8863 9.22068C70.3478 8.94761 70.8583 8.81433 71.4174 8.82083C71.9765 8.81433 72.4739 8.94436 72.9095 9.21093C73.3516 9.47099 73.6897 9.84483 73.9238 10.3325C74.1643 10.8136 74.2846 11.3662 74.2846 11.9903C74.2846 12.6145 74.1643 13.1672 73.9238 13.6483C73.6897 14.1294 73.3516 14.5065 72.9095 14.7796ZM34.9166 3.04738H37.9594L40.6812 12.9877L43.5768 3.04738H46.1124L49.2527 12.7882L51.8664 3.04738H54.6555L50.54 17.403H47.9166L44.7233 7.88692L41.7921 17.403H39.1394L34.9166 3.04738ZM59.1492 17.6565C58.0893 17.663 57.1336 17.4289 56.2819 16.9543C55.4367 16.4732 54.7703 15.8067 54.2826 14.955C53.8016 14.1034 53.561 13.1314 53.561 12.039C53.561 10.9793 53.8081 10.0203 54.3022 9.16212C54.7963 8.3039 55.4659 7.63424 56.3112 7.15312C57.1564 6.672 58.0991 6.43144 59.1393 6.43144C60.3097 6.43144 61.3336 6.6915 62.2114 7.21163C63.0956 7.73176 63.7555 8.4697 64.1911 9.42543C64.6332 10.3747 64.7925 11.4637 64.669 12.6925H56.3154C56.3387 13.182 56.4609 13.6274 56.6818 14.0286C56.9289 14.4707 57.2734 14.8152 57.7155 15.0623C58.1577 15.3094 58.6517 15.4329 59.1979 15.4329C59.614 15.4264 60.0009 15.3549 60.3584 15.2184C60.7161 15.0754 61.0183 14.8836 61.2654 14.6429C61.519 14.4024 61.6978 14.1294 61.8018 13.8238H64.591C64.4219 14.5715 64.0839 15.2379 63.5768 15.823C63.0696 16.4017 62.4325 16.8535 61.6652 17.1786C60.8981 17.5037 60.0594 17.663 59.1492 17.6565ZM56.6915 10.0106C56.5358 10.2823 56.4277 10.5748 56.3676 10.8883H61.9051C61.865 10.4923 61.7427 10.1315 61.5385 9.80578C61.3044 9.42218 60.9858 9.12636 60.5828 8.91831C60.1797 8.70375 59.7246 8.59648 59.2174 8.59648C58.6778 8.59648 58.1869 8.72001 57.7448 8.96707C57.3027 9.21413 56.9516 9.56197 56.6915 10.0106ZM79.0148 6.65577C79.0148 5.78456 79.2131 5.01086 79.6097 4.33469C80.0062 3.65203 80.5622 3.12214 81.2774 2.74505C81.999 2.36145 82.841 2.16315 83.8032 2.15016V4.51999C83.3546 4.52649 82.971 4.62076 82.6525 4.80281C82.3404 4.97836 82.0998 5.23517 81.9308 5.57325C81.7752 5.8845 81.6912 6.24534 81.6789 6.65577H83.7447V8.90858H81.6773V17.403H79.0148V8.90858H77.2984V6.65577H79.0148ZM94.2867 17.6369C93.2009 17.6369 92.2289 17.3996 91.3707 16.925C90.519 16.4439 89.8493 15.7808 89.3617 14.9355C88.8805 14.0838 88.64 13.1183 88.64 12.039C88.64 10.9533 88.8805 9.98453 89.3617 9.13281C89.8493 8.27459 90.519 7.60818 91.3707 7.13357C92.2289 6.65895 93.2009 6.42164 94.2867 6.42164C95.3789 6.42164 96.3542 6.65895 97.2123 7.13357C98.0771 7.60818 98.7501 8.27135 99.2311 9.12306C99.7122 9.97477 99.9561 10.9468 99.9626 12.039C99.9561 13.1183 99.7122 14.0838 99.2311 14.9355C98.7565 15.7808 98.0868 16.4439 97.2221 16.925C96.3574 17.3996 95.3789 17.6369 94.2867 17.6369ZM94.2867 15.1891C94.8588 15.1891 95.3659 15.059 95.808 14.799C96.2502 14.5324 96.5914 14.1618 96.8321 13.6872C97.0726 13.2061 97.1928 12.6567 97.1928 12.039C97.1928 11.4149 97.0726 10.8622 96.8321 10.3811C96.5914 9.9 96.2502 9.52942 95.808 9.26935C95.3659 9.00278 94.8588 8.8695 94.2867 8.8695C93.7211 8.8695 93.2172 9.00278 92.775 9.26935C92.3395 9.52942 92.0013 9.9 91.7608 10.3811C91.5202 10.8622 91.4032 11.4149 91.4097 12.039C91.4097 12.6567 91.53 13.2061 91.7705 13.6872C92.0176 14.1618 92.3556 14.5324 92.7848 14.799C93.2204 15.059 93.7211 15.1891 94.2867 15.1891ZM102.84 6.65575H99.8749L103.083 17.403H105.678L107.788 10.5387L110.066 17.403H112.621L115.84 6.65575H113.158L111.332 13.3452L109.315 6.65575H106.721L104.713 13.4925L102.84 6.65575Z" fill="black"/>
<path d="M31.0596 0.24585L21.1943 19.5317H11.9279L16.0565 11.5388H15.8713C12.4652 15.9604 7.38316 18.8711 0.14209 19.5317V11.6494C0.14209 11.6494 4.77438 11.3758 7.49757 8.51277H0.14209V0.246002H8.40886V7.0453L8.5944 7.04454L11.9725 0.246002H18.2245V7.00218L18.4099 7.00188L21.9148 0.24585H31.0596ZM84.8565 17.4029H87.5189V2.12086H84.8565V17.4029ZM70.1789 17.2469C70.7575 17.4874 71.3459 17.6077 71.9441 17.6077C72.9323 17.6077 73.8165 17.3672 74.5967 16.886C75.3768 16.405 75.9816 15.7418 76.4107 14.8966C76.8398 14.0449 77.0543 13.0793 77.0543 12.0001C77.0543 10.9208 76.8332 9.95536 76.3912 9.10365C75.949 8.25194 75.3346 7.59202 74.5479 7.1239C73.7612 6.64929 72.8672 6.41524 71.866 6.42173C71.2289 6.42173 70.6177 6.54527 70.0325 6.79233C69.4474 7.03939 68.9598 7.39048 68.5697 7.84559C68.5396 7.88024 68.5103 7.91523 68.4819 7.95058V2.13067H65.8098V17.403H68.4624L68.4571 15.9763C68.5257 16.0604 68.5991 16.1426 68.6769 16.2229C69.0995 16.6586 69.6002 16.9998 70.1789 17.2469ZM72.9095 14.7796C72.4739 15.0462 71.9765 15.1794 71.4174 15.1794C70.8647 15.1794 70.3576 15.0428 69.896 14.7698C69.4343 14.4902 69.0671 14.1099 68.7939 13.6288C68.5274 13.1477 68.3941 12.6015 68.3941 11.9903C68.3877 11.3792 68.5176 10.8331 68.7842 10.352C69.0573 9.86434 69.4246 9.48724 69.8863 9.22068C70.3478 8.94761 70.8583 8.81433 71.4174 8.82083C71.9765 8.81433 72.4739 8.94436 72.9095 9.21093C73.3516 9.47099 73.6897 9.84483 73.9238 10.3325C74.1643 10.8136 74.2846 11.3662 74.2846 11.9903C74.2846 12.6145 74.1643 13.1672 73.9238 13.6483C73.6897 14.1294 73.3516 14.5065 72.9095 14.7796ZM34.9166 3.04738H37.9594L40.6812 12.9877L43.5768 3.04738H46.1124L49.2527 12.7882L51.8664 3.04738H54.6555L50.54 17.403H47.9166L44.7233 7.88692L41.7921 17.403H39.1394L34.9166 3.04738ZM59.1492 17.6565C58.0893 17.663 57.1336 17.4289 56.2819 16.9543C55.4367 16.4732 54.7703 15.8067 54.2826 14.955C53.8016 14.1034 53.561 13.1314 53.561 12.039C53.561 10.9793 53.8081 10.0203 54.3022 9.16212C54.7963 8.3039 55.4659 7.63424 56.3112 7.15312C57.1564 6.672 58.0991 6.43144 59.1393 6.43144C60.3097 6.43144 61.3336 6.6915 62.2114 7.21163C63.0956 7.73176 63.7555 8.4697 64.1911 9.42543C64.6332 10.3747 64.7925 11.4637 64.669 12.6925H56.3154C56.3387 13.182 56.4609 13.6274 56.6818 14.0286C56.9289 14.4707 57.2734 14.8152 57.7155 15.0623C58.1577 15.3094 58.6517 15.4329 59.1979 15.4329C59.614 15.4264 60.0009 15.3549 60.3584 15.2184C60.7161 15.0754 61.0183 14.8836 61.2654 14.6429C61.519 14.4024 61.6978 14.1294 61.8018 13.8238H64.591C64.4219 14.5715 64.0839 15.2379 63.5768 15.823C63.0696 16.4017 62.4325 16.8535 61.6652 17.1786C60.8981 17.5037 60.0594 17.663 59.1492 17.6565ZM56.6915 10.0106C56.5358 10.2823 56.4277 10.5748 56.3676 10.8883H61.9051C61.865 10.4923 61.7427 10.1315 61.5385 9.80578C61.3044 9.42218 60.9858 9.12636 60.5828 8.91831C60.1797 8.70375 59.7246 8.59648 59.2174 8.59648C58.6778 8.59648 58.1869 8.72001 57.7448 8.96707C57.3027 9.21413 56.9516 9.56197 56.6915 10.0106ZM79.0148 6.65577C79.0148 5.78456 79.2131 5.01086 79.6097 4.33469C80.0062 3.65203 80.5622 3.12214 81.2774 2.74505C81.999 2.36145 82.841 2.16315 83.8032 2.15016V4.51999C83.3546 4.52649 82.971 4.62076 82.6525 4.80281C82.3404 4.97836 82.0998 5.23517 81.9308 5.57325C81.7752 5.8845 81.6912 6.24534 81.6789 6.65577H83.7447V8.90858H81.6773V17.403H79.0148V8.90858H77.2984V6.65577H79.0148ZM94.2867 17.6369C93.2009 17.6369 92.2289 17.3996 91.3707 16.925C90.519 16.4439 89.8493 15.7808 89.3617 14.9355C88.8805 14.0838 88.64 13.1183 88.64 12.039C88.64 10.9533 88.8805 9.98453 89.3617 9.13281C89.8493 8.27459 90.519 7.60818 91.3707 7.13357C92.2289 6.65895 93.2009 6.42164 94.2867 6.42164C95.3789 6.42164 96.3542 6.65895 97.2123 7.13357C98.0771 7.60818 98.7501 8.27135 99.2311 9.12306C99.7122 9.97477 99.9561 10.9468 99.9626 12.039C99.9561 13.1183 99.7122 14.0838 99.2311 14.9355C98.7565 15.7808 98.0868 16.4439 97.2221 16.925C96.3574 17.3996 95.3789 17.6369 94.2867 17.6369ZM94.2867 15.1891C94.8588 15.1891 95.3659 15.059 95.808 14.799C96.2502 14.5324 96.5914 14.1618 96.8321 13.6872C97.0726 13.2061 97.1928 12.6567 97.1928 12.039C97.1928 11.4149 97.0726 10.8622 96.8321 10.3811C96.5914 9.9 96.2502 9.52942 95.808 9.26935C95.3659 9.00278 94.8588 8.8695 94.2867 8.8695C93.7211 8.8695 93.2172 9.00278 92.775 9.26935C92.3395 9.52942 92.0013 9.9 91.7608 10.3811C91.5202 10.8622 91.4032 11.4149 91.4097 12.039C91.4097 12.6567 91.53 13.2061 91.7705 13.6872C92.0176 14.1618 92.3556 14.5324 92.7848 14.799C93.2204 15.059 93.7211 15.1891 94.2867 15.1891ZM102.84 6.65575H99.8749L103.083 17.403H105.678L107.788 10.5387L110.066 17.403H112.621L115.84 6.65575H113.158L111.332 13.3452L109.315 6.65575H106.721L104.713 13.4925L102.84 6.65575Z" fill="black"/>
<path fill-rule="evenodd" clip-rule="evenodd" d="M31.0596 0.24585L21.1943 19.5317H11.9279L16.0565 11.5388H15.8713C12.4652 15.9604 7.38316 18.8711 0.14209 19.5317V11.6494C0.14209 11.6494 4.77438 11.3758 7.49757 8.51277H0.14209V0.246002H8.40886V7.0453L8.5944 7.04454L11.9725 0.246002H18.2245V7.00218L18.4099 7.00188L21.9148 0.24585H31.0596ZM84.8565 17.4029H87.5189V2.12086H84.8565V17.4029ZM70.1789 17.2469C70.7575 17.4874 71.3459 17.6077 71.9441 17.6077C72.9323 17.6077 73.8165 17.3672 74.5967 16.886C75.3768 16.405 75.9816 15.7418 76.4107 14.8966C76.8398 14.0449 77.0543 13.0793 77.0543 12.0001C77.0543 10.9208 76.8332 9.95536 76.3912 9.10365C75.949 8.25194 75.3346 7.59202 74.5479 7.1239C73.7612 6.64929 72.8672 6.41524 71.866 6.42173C71.2289 6.42173 70.6177 6.54527 70.0325 6.79233C69.4474 7.03939 68.9598 7.39048 68.5697 7.84559C68.5396 7.88024 68.5103 7.91523 68.4819 7.95058V2.13067H65.8098V17.403H68.4624L68.4571 15.9763C68.5257 16.0604 68.5991 16.1426 68.6769 16.2229C69.0995 16.6586 69.6002 16.9998 70.1789 17.2469ZM72.9095 14.7796C72.4739 15.0462 71.9765 15.1794 71.4174 15.1794C70.8647 15.1794 70.3576 15.0428 69.896 14.7698C69.4343 14.4902 69.0671 14.1099 68.7939 13.6288C68.5274 13.1477 68.3941 12.6015 68.3941 11.9903C68.3877 11.3792 68.5176 10.8331 68.7842 10.352C69.0573 9.86434 69.4246 9.48724 69.8863 9.22068C70.3478 8.94761 70.8583 8.81433 71.4174 8.82083C71.9765 8.81433 72.4739 8.94436 72.9095 9.21093C73.3516 9.47099 73.6897 9.84483 73.9238 10.3325C74.1643 10.8136 74.2846 11.3662 74.2846 11.9903C74.2846 12.6145 74.1643 13.1672 73.9238 13.6483C73.6897 14.1294 73.3516 14.5065 72.9095 14.7796ZM34.9166 3.04738H37.9594L40.6812 12.9877L43.5768 3.04738H46.1124L49.2527 12.7882L51.8664 3.04738H54.6555L50.54 17.403H47.9166L44.7233 7.88692L41.7921 17.403H39.1394L34.9166 3.04738ZM59.1492 17.6565C58.0893 17.663 57.1336 17.4289 56.2819 16.9543C55.4367 16.4732 54.7703 15.8067 54.2826 14.955C53.8016 14.1034 53.561 13.1314 53.561 12.039C53.561 10.9793 53.8081 10.0203 54.3022 9.16212C54.7963 8.3039 55.4659 7.63424 56.3112 7.15312C57.1564 6.672 58.0991 6.43144 59.1393 6.43144C60.3097 6.43144 61.3336 6.6915 62.2114 7.21163C63.0956 7.73176 63.7555 8.4697 64.1911 9.42543C64.6332 10.3747 64.7925 11.4637 64.669 12.6925H56.3154C56.3387 13.182 56.4609 13.6274 56.6818 14.0286C56.9289 14.4707 57.2734 14.8152 57.7155 15.0623C58.1577 15.3094 58.6517 15.4329 59.1979 15.4329C59.614 15.4264 60.0009 15.3549 60.3584 15.2184C60.7161 15.0754 61.0183 14.8836 61.2654 14.6429C61.519 14.4024 61.6978 14.1294 61.8018 13.8238H64.591C64.4219 14.5715 64.0839 15.2379 63.5768 15.823C63.0696 16.4017 62.4325 16.8535 61.6652 17.1786C60.8981 17.5037 60.0594 17.663 59.1492 17.6565ZM56.6915 10.0106C56.5358 10.2823 56.4277 10.5748 56.3676 10.8883H61.9051C61.865 10.4923 61.7427 10.1315 61.5385 9.80578C61.3044 9.42218 60.9858 9.12636 60.5828 8.91831C60.1797 8.70375 59.7246 8.59648 59.2174 8.59648C58.6778 8.59648 58.1869 8.72001 57.7448 8.96707C57.3027 9.21413 56.9516 9.56197 56.6915 10.0106ZM79.0148 6.65577C79.0148 5.78456 79.2131 5.01086 79.6097 4.33469C80.0062 3.65203 80.5622 3.12214 81.2774 2.74505C81.999 2.36145 82.841 2.16315 83.8032 2.15016V4.51999C83.3546 4.52649 82.971 4.62076 82.6525 4.80281C82.3404 4.97836 82.0998 5.23517 81.9308 5.57325C81.7752 5.8845 81.6912 6.24534 81.6789 6.65577H83.7447V8.90858H81.6773V17.403H79.0148V8.90858H77.2984V6.65577H79.0148ZM94.2867 17.6369C93.2009 17.6369 92.2289 17.3996 91.3707 16.925C90.519 16.4439 89.8493 15.7808 89.3617 14.9355C88.8805 14.0838 88.64 13.1183 88.64 12.039C88.64 10.9533 88.8805 9.98453 89.3617 9.13281C89.8493 8.27459 90.519 7.60818 91.3707 7.13357C92.2289 6.65895 93.2009 6.42164 94.2867 6.42164C95.3789 6.42164 96.3542 6.65895 97.2123 7.13357C98.0771 7.60818 98.7501 8.27135 99.2311 9.12306C99.7122 9.97477 99.9561 10.9468 99.9626 12.039C99.9561 13.1183 99.7122 14.0838 99.2311 14.9355C98.7565 15.7808 98.0868 16.4439 97.2221 16.925C96.3574 17.3996 95.3789 17.6369 94.2867 17.6369ZM94.2867 15.1891C94.8588 15.1891 95.3659 15.059 95.808 14.799C96.2502 14.5324 96.5914 14.1618 96.8321 13.6872C97.0726 13.2061 97.1928 12.6567 97.1928 12.039C97.1928 11.4149 97.0726 10.8622 96.8321 10.3811C96.5914 9.9 96.2502 9.52942 95.808 9.26935C95.3659 9.00278 94.8588 8.8695 94.2867 8.8695C93.7211 8.8695 93.2172 9.00278 92.775 9.26935C92.3395 9.52942 92.0013 9.9 91.7608 10.3811C91.5202 10.8622 91.4032 11.4149 91.4097 12.039C91.4097 12.6567 91.53 13.2061 91.7705 13.6872C92.0176 14.1618 92.3556 14.5324 92.7848 14.799C93.2204 15.059 93.7211 15.1891 94.2867 15.1891ZM102.84 6.65575H99.8749L103.083 17.403H105.678L107.788 10.5387L110.066 17.403H112.621L115.84 6.65575H113.158L111.332 13.3452L109.315 6.65575H106.721L104.713 13.4925L102.84 6.65575Z" fill="black"/>
<path d="M31.0596 0.24585L21.1943 19.5317H11.9279L16.0565 11.5388H15.8713C12.4652 15.9604 7.38316 18.8711 0.14209 19.5317V11.6494C0.14209 11.6494 4.77438 11.3758 7.49757 8.51277H0.14209V0.246002H8.40886V7.0453L8.5944 7.04454L11.9725 0.246002H18.2245V7.00218L18.4099 7.00188L21.9148 0.24585H31.0596ZM84.8565 17.4029H87.5189V2.12086H84.8565V17.4029ZM70.1789 17.2469C70.7575 17.4874 71.3459 17.6077 71.9441 17.6077C72.9323 17.6077 73.8165 17.3672 74.5967 16.886C75.3768 16.405 75.9816 15.7418 76.4107 14.8966C76.8398 14.0449 77.0543 13.0793 77.0543 12.0001C77.0543 10.9208 76.8332 9.95536 76.3912 9.10365C75.949 8.25194 75.3346 7.59202 74.5479 7.1239C73.7612 6.64929 72.8672 6.41524 71.866 6.42173C71.2289 6.42173 70.6177 6.54527 70.0325 6.79233C69.4474 7.03939 68.9598 7.39048 68.5697 7.84559C68.5396 7.88024 68.5103 7.91523 68.4819 7.95058V2.13067H65.8098V17.403H68.4624L68.4571 15.9763C68.5257 16.0604 68.5991 16.1426 68.6769 16.2229C69.0995 16.6586 69.6002 16.9998 70.1789 17.2469ZM72.9095 14.7796C72.4739 15.0462 71.9765 15.1794 71.4174 15.1794C70.8647 15.1794 70.3576 15.0428 69.896 14.7698C69.4343 14.4902 69.0671 14.1099 68.7939 13.6288C68.5274 13.1477 68.3941 12.6015 68.3941 11.9903C68.3877 11.3792 68.5176 10.8331 68.7842 10.352C69.0573 9.86434 69.4246 9.48724 69.8863 9.22068C70.3478 8.94761 70.8583 8.81433 71.4174 8.82083C71.9765 8.81433 72.4739 8.94436 72.9095 9.21093C73.3516 9.47099 73.6897 9.84483 73.9238 10.3325C74.1643 10.8136 74.2846 11.3662 74.2846 11.9903C74.2846 12.6145 74.1643 13.1672 73.9238 13.6483C73.6897 14.1294 73.3516 14.5065 72.9095 14.7796ZM34.9166 3.04738H37.9594L40.6812 12.9877L43.5768 3.04738H46.1124L49.2527 12.7882L51.8664 3.04738H54.6555L50.54 17.403H47.9166L44.7233 7.88692L41.7921 17.403H39.1394L34.9166 3.04738ZM59.1492 17.6565C58.0893 17.663 57.1336 17.4289 56.2819 16.9543C55.4367 16.4732 54.7703 15.8067 54.2826 14.955C53.8016 14.1034 53.561 13.1314 53.561 12.039C53.561 10.9793 53.8081 10.0203 54.3022 9.16212C54.7963 8.3039 55.4659 7.63424 56.3112 7.15312C57.1564 6.672 58.0991 6.43144 59.1393 6.43144C60.3097 6.43144 61.3336 6.6915 62.2114 7.21163C63.0956 7.73176 63.7555 8.4697 64.1911 9.42543C64.6332 10.3747 64.7925 11.4637 64.669 12.6925H56.3154C56.3387 13.182 56.4609 13.6274 56.6818 14.0286C56.9289 14.4707 57.2734 14.8152 57.7155 15.0623C58.1577 15.3094 58.6517 15.4329 59.1979 15.4329C59.614 15.4264 60.0009 15.3549 60.3584 15.2184C60.7161 15.0754 61.0183 14.8836 61.2654 14.6429C61.519 14.4024 61.6978 14.1294 61.8018 13.8238H64.591C64.4219 14.5715 64.0839 15.2379 63.5768 15.823C63.0696 16.4017 62.4325 16.8535 61.6652 17.1786C60.8981 17.5037 60.0594 17.663 59.1492 17.6565ZM56.6915 10.0106C56.5358 10.2823 56.4277 10.5748 56.3676 10.8883H61.9051C61.865 10.4923 61.7427 10.1315 61.5385 9.80578C61.3044 9.42218 60.9858 9.12636 60.5828 8.91831C60.1797 8.70375 59.7246 8.59648 59.2174 8.59648C58.6778 8.59648 58.1869 8.72001 57.7448 8.96707C57.3027 9.21413 56.9516 9.56197 56.6915 10.0106ZM79.0148 6.65577C79.0148 5.78456 79.2131 5.01086 79.6097 4.33469C80.0062 3.65203 80.5622 3.12214 81.2774 2.74505C81.999 2.36145 82.841 2.16315 83.8032 2.15016V4.51999C83.3546 4.52649 82.971 4.62076 82.6525 4.80281C82.3404 4.97836 82.0998 5.23517 81.9308 5.57325C81.7752 5.8845 81.6912 6.24534 81.6789 6.65577H83.7447V8.90858H81.6773V17.403H79.0148V8.90858H77.2984V6.65577H79.0148ZM94.2867 17.6369C93.2009 17.6369 92.2289 17.3996 91.3707 16.925C90.519 16.4439 89.8493 15.7808 89.3617 14.9355C88.8805 14.0838 88.64 13.1183 88.64 12.039C88.64 10.9533 88.8805 9.98453 89.3617 9.13281C89.8493 8.27459 90.519 7.60818 91.3707 7.13357C92.2289 6.65895 93.2009 6.42164 94.2867 6.42164C95.3789 6.42164 96.3542 6.65895 97.2123 7.13357C98.0771 7.60818 98.7501 8.27135 99.2311 9.12306C99.7122 9.97477 99.9561 10.9468 99.9626 12.039C99.9561 13.1183 99.7122 14.0838 99.2311 14.9355C98.7565 15.7808 98.0868 16.4439 97.2221 16.925C96.3574 17.3996 95.3789 17.6369 94.2867 17.6369ZM94.2867 15.1891C94.8588 15.1891 95.3659 15.059 95.808 14.799C96.2502 14.5324 96.5914 14.1618 96.8321 13.6872C97.0726 13.2061 97.1928 12.6567 97.1928 12.039C97.1928 11.4149 97.0726 10.8622 96.8321 10.3811C96.5914 9.9 96.2502 9.52942 95.808 9.26935C95.3659 9.00278 94.8588 8.8695 94.2867 8.8695C93.7211 8.8695 93.2172 9.00278 92.775 9.26935C92.3395 9.52942 92.0013 9.9 91.7608 10.3811C91.5202 10.8622 91.4032 11.4149 91.4097 12.039C91.4097 12.6567 91.53 13.2061 91.7705 13.6872C92.0176 14.1618 92.3556 14.5324 92.7848 14.799C93.2204 15.059 93.7211 15.1891 94.2867 15.1891ZM102.84 6.65575H99.8749L103.083 17.403H105.678L107.788 10.5387L110.066 17.403H112.621L115.84 6.65575H113.158L111.332 13.3452L109.315 6.65575H106.721L104.713 13.4925L102.84 6.65575Z" fill="black"/>
<path fill-rule="evenodd" clip-rule="evenodd" d="M31.0596 0.24585L21.1943 19.5317H11.9279L16.0565 11.5388H15.8713C12.4652 15.9604 7.38316 18.8711 0.14209 19.5317V11.6494C0.14209 11.6494 4.77438 11.3758 7.49757 8.51277H0.14209V0.246002H8.40886V7.0453L8.5944 7.04454L11.9725 0.246002H18.2245V7.00218L18.4099 7.00188L21.9148 0.24585H31.0596ZM84.8565 17.4029H87.5189V2.12086H84.8565V17.4029ZM70.1789 17.2469C70.7575 17.4874 71.3459 17.6077 71.9441 17.6077C72.9323 17.6077 73.8165 17.3672 74.5967 16.886C75.3768 16.405 75.9816 15.7418 76.4107 14.8966C76.8398 14.0449 77.0543 13.0793 77.0543 12.0001C77.0543 10.9208 76.8332 9.95536 76.3912 9.10365C75.949 8.25194 75.3346 7.59202 74.5479 7.1239C73.7612 6.64929 72.8672 6.41524 71.866 6.42173C71.2289 6.42173 70.6177 6.54527 70.0325 6.79233C69.4474 7.03939 68.9598 7.39048 68.5697 7.84559C68.5396 7.88024 68.5103 7.91523 68.4819 7.95058V2.13067H65.8098V17.403H68.4624L68.4571 15.9763C68.5257 16.0604 68.5991 16.1426 68.6769 16.2229C69.0995 16.6586 69.6002 16.9998 70.1789 17.2469ZM72.9095 14.7796C72.4739 15.0462 71.9765 15.1794 71.4174 15.1794C70.8647 15.1794 70.3576 15.0428 69.896 14.7698C69.4343 14.4902 69.0671 14.1099 68.7939 13.6288C68.5274 13.1477 68.3941 12.6015 68.3941 11.9903C68.3877 11.3792 68.5176 10.8331 68.7842 10.352C69.0573 9.86434 69.4246 9.48724 69.8863 9.22068C70.3478 8.94761 70.8583 8.81433 71.4174 8.82083C71.9765 8.81433 72.4739 8.94436 72.9095 9.21093C73.3516 9.47099 73.6897 9.84483 73.9238 10.3325C74.1643 10.8136 74.2846 11.3662 74.2846 11.9903C74.2846 12.6145 74.1643 13.1672 73.9238 13.6483C73.6897 14.1294 73.3516 14.5065 72.9095 14.7796ZM34.9166 3.04738H37.9594L40.6812 12.9877L43.5768 3.04738H46.1124L49.2527 12.7882L51.8664 3.04738H54.6555L50.54 17.403H47.9166L44.7233 7.88692L41.7921 17.403H39.1394L34.9166 3.04738ZM59.1492 17.6565C58.0893 17.663 57.1336 17.4289 56.2819 16.9543C55.4367 16.4732 54.7703 15.8067 54.2826 14.955C53.8016 14.1034 53.561 13.1314 53.561 12.039C53.561 10.9793 53.8081 10.0203 54.3022 9.16212C54.7963 8.3039 55.4659 7.63424 56.3112 7.15312C57.1564 6.672 58.0991 6.43144 59.1393 6.43144C60.3097 6.43144 61.3336 6.6915 62.2114 7.21163C63.0956 7.73176 63.7555 8.4697 64.1911 9.42543C64.6332 10.3747 64.7925 11.4637 64.669 12.6925H56.3154C56.3387 13.182 56.4609 13.6274 56.6818 14.0286C56.9289 14.4707 57.2734 14.8152 57.7155 15.0623C58.1577 15.3094 58.6517 15.4329 59.1979 15.4329C59.614 15.4264 60.0009 15.3549 60.3584 15.2184C60.7161 15.0754 61.0183 14.8836 61.2654 14.6429C61.519 14.4024 61.6978 14.1294 61.8018 13.8238H64.591C64.4219 14.5715 64.0839 15.2379 63.5768 15.823C63.0696 16.4017 62.4325 16.8535 61.6652 17.1786C60.8981 17.5037 60.0594 17.663 59.1492 17.6565ZM56.6915 10.0106C56.5358 10.2823 56.4277 10.5748 56.3676 10.8883H61.9051C61.865 10.4923 61.7427 10.1315 61.5385 9.80578C61.3044 9.42218 60.9858 9.12636 60.5828 8.91831C60.1797 8.70375 59.7246 8.59648 59.2174 8.59648C58.6778 8.59648 58.1869 8.72001 57.7448 8.96707C57.3027 9.21413 56.9516 9.56197 56.6915 10.0106ZM79.0148 6.65577C79.0148 5.78456 79.2131 5.01086 79.6097 4.33469C80.0062 3.65203 80.5622 3.12214 81.2774 2.74505C81.999 2.36145 82.841 2.16315 83.8032 2.15016V4.51999C83.3546 4.52649 82.971 4.62076 82.6525 4.80281C82.3404 4.97836 82.0998 5.23517 81.9308 5.57325C81.7752 5.8845 81.6912 6.24534 81.6789 6.65577H83.7447V8.90858H81.6773V17.403H79.0148V8.90858H77.2984V6.65577H79.0148ZM94.2867 17.6369C93.2009 17.6369 92.2289 17.3996 91.3707 16.925C90.519 16.4439 89.8493 15.7808 89.3617 14.9355C88.8805 14.0838 88.64 13.1183 88.64 12.039C88.64 10.9533 88.8805 9.98453 89.3617 9.13281C89.8493 8.27459 90.519 7.60818 91.3707 7.13357C92.2289 6.65895 93.2009 6.42164 94.2867 6.42164C95.3789 6.42164 96.3542 6.65895 97.2123 7.13357C98.0771 7.60818 98.7501 8.27135 99.2311 9.12306C99.7122 9.97477 99.9561 10.9468 99.9626 12.039C99.9561 13.1183 99.7122 14.0838 99.2311 14.9355C98.7565 15.7808 98.0868 16.4439 97.2221 16.925C96.3574 17.3996 95.3789 17.6369 94.2867 17.6369ZM94.2867 15.1891C94.8588 15.1891 95.3659 15.059 95.808 14.799C96.2502 14.5324 96.5914 14.1618 96.8321 13.6872C97.0726 13.2061 97.1928 12.6567 97.1928 12.039C97.1928 11.4149 97.0726 10.8622 96.8321 10.3811C96.5914 9.9 96.2502 9.52942 95.808 9.26935C95.3659 9.00278 94.8588 8.8695 94.2867 8.8695C93.7211 8.8695 93.2172 9.00278 92.775 9.26935C92.3395 9.52942 92.0013 9.9 91.7608 10.3811C91.5202 10.8622 91.4032 11.4149 91.4097 12.039C91.4097 12.6567 91.53 13.2061 91.7705 13.6872C92.0176 14.1618 92.3556 14.5324 92.7848 14.799C93.2204 15.059 93.7211 15.1891 94.2867 15.1891ZM102.84 6.65575H99.8749L103.083 17.403H105.678L107.788 10.5387L110.066 17.403H112.621L115.84 6.65575H113.158L111.332 13.3452L109.315 6.65575H106.721L104.713 13.4925L102.84 6.65575Z" fill="black"/>
<path d="M31.0596 0.24585L21.1943 19.5317H11.9279L16.0565 11.5388H15.8713C12.4652 15.9604 7.38316 18.8711 0.14209 19.5317V11.6494C0.14209 11.6494 4.77438 11.3758 7.49757 8.51277H0.14209V0.246002H8.40886V7.0453L8.5944 7.04454L11.9725 0.246002H18.2245V7.00218L18.4099 7.00188L21.9148 0.24585H31.0596ZM84.8565 17.4029H87.5189V2.12086H84.8565V17.4029ZM70.1789 17.2469C70.7575 17.4874 71.3459 17.6077 71.9441 17.6077C72.9323 17.6077 73.8165 17.3672 74.5967 16.886C75.3768 16.405 75.9816 15.7418 76.4107 14.8966C76.8398 14.0449 77.0543 13.0793 77.0543 12.0001C77.0543 10.9208 76.8332 9.95536 76.3912 9.10365C75.949 8.25194 75.3346 7.59202 74.5479 7.1239C73.7612 6.64929 72.8672 6.41524 71.866 6.42173C71.2289 6.42173 70.6177 6.54527 70.0325 6.79233C69.4474 7.03939 68.9598 7.39048 68.5697 7.84559C68.5396 7.88024 68.5103 7.91523 68.4819 7.95058V2.13067H65.8098V17.403H68.4624L68.4571 15.9763C68.5257 16.0604 68.5991 16.1426 68.6769 16.2229C69.0995 16.6586 69.6002 16.9998 70.1789 17.2469ZM72.9095 14.7796C72.4739 15.0462 71.9765 15.1794 71.4174 15.1794C70.8647 15.1794 70.3576 15.0428 69.896 14.7698C69.4343 14.4902 69.0671 14.1099 68.7939 13.6288C68.5274 13.1477 68.3941 12.6015 68.3941 11.9903C68.3877 11.3792 68.5176 10.8331 68.7842 10.352C69.0573 9.86434 69.4246 9.48724 69.8863 9.22068C70.3478 8.94761 70.8583 8.81433 71.4174 8.82083C71.9765 8.81433 72.4739 8.94436 72.9095 9.21093C73.3516 9.47099 73.6897 9.84483 73.9238 10.3325C74.1643 10.8136 74.2846 11.3662 74.2846 11.9903C74.2846 12.6145 74.1643 13.1672 73.9238 13.6483C73.6897 14.1294 73.3516 14.5065 72.9095 14.7796ZM34.9166 3.04738H37.9594L40.6812 12.9877L43.5768 3.04738H46.1124L49.2527 12.7882L51.8664 3.04738H54.6555L50.54 17.403H47.9166L44.7233 7.88692L41.7921 17.403H39.1394L34.9166 3.04738ZM59.1492 17.6565C58.0893 17.663 57.1336 17.4289 56.2819 16.9543C55.4367 16.4732 54.7703 15.8067 54.2826 14.955C53.8016 14.1034 53.561 13.1314 53.561 12.039C53.561 10.9793 53.8081 10.0203 54.3022 9.16212C54.7963 8.3039 55.4659 7.63424 56.3112 7.15312C57.1564 6.672 58.0991 6.43144 59.1393 6.43144C60.3097 6.43144 61.3336 6.6915 62.2114 7.21163C63.0956 7.73176 63.7555 8.4697 64.1911 9.42543C64.6332 10.3747 64.7925 11.4637 64.669 12.6925H56.3154C56.3387 13.182 56.4609 13.6274 56.6818 14.0286C56.9289 14.4707 57.2734 14.8152 57.7155 15.0623C58.1577 15.3094 58.6517 15.4329 59.1979 15.4329C59.614 15.4264 60.0009 15.3549 60.3584 15.2184C60.7161 15.0754 61.0183 14.8836 61.2654 14.6429C61.519 14.4024 61.6978 14.1294 61.8018 13.8238H64.591C64.4219 14.5715 64.0839 15.2379 63.5768 15.823C63.0696 16.4017 62.4325 16.8535 61.6652 17.1786C60.8981 17.5037 60.0594 17.663 59.1492 17.6565ZM56.6915 10.0106C56.5358 10.2823 56.4277 10.5748 56.3676 10.8883H61.9051C61.865 10.4923 61.7427 10.1315 61.5385 9.80578C61.3044 9.42218 60.9858 9.12636 60.5828 8.91831C60.1797 8.70375 59.7246 8.59648 59.2174 8.59648C58.6778 8.59648 58.1869 8.72001 57.7448 8.96707C57.3027 9.21413 56.9516 9.56197 56.6915 10.0106ZM79.0148 6.65577C79.0148 5.78456 79.2131 5.01086 79.6097 4.33469C80.0062 3.65203 80.5622 3.12214 81.2774 2.74505C81.999 2.36145 82.841 2.16315 83.8032 2.15016V4.51999C83.3546 4.52649 82.971 4.62076 82.6525 4.80281C82.3404 4.97836 82.0998 5.23517 81.9308 5.57325C81.7752 5.8845 81.6912 6.24534 81.6789 6.65577H83.7447V8.90858H81.6773V17.403H79.0148V8.90858H77.2984V6.65577H79.0148ZM94.2867 17.6369C93.2009 17.6369 92.2289 17.3996 91.3707 16.925C90.519 16.4439 89.8493 15.7808 89.3617 14.9355C88.8805 14.0838 88.64 13.1183 88.64 12.039C88.64 10.9533 88.8805 9.98453 89.3617 9.13281C89.8493 8.27459 90.519 7.60818 91.3707 7.13357C92.2289 6.65895 93.2009 6.42164 94.2867 6.42164C95.3789 6.42164 96.3542 6.65895 97.2123 7.13357C98.0771 7.60818 98.7501 8.27135 99.2311 9.12306C99.7122 9.97477 99.9561 10.9468 99.9626 12.039C99.9561 13.1183 99.7122 14.0838 99.2311 14.9355C98.7565 15.7808 98.0868 16.4439 97.2221 16.925C96.3574 17.3996 95.3789 17.6369 94.2867 17.6369ZM94.2867 15.1891C94.8588 15.1891 95.3659 15.059 95.808 14.799C96.2502 14.5324 96.5914 14.1618 96.8321 13.6872C97.0726 13.2061 97.1928 12.6567 97.1928 12.039C97.1928 11.4149 97.0726 10.8622 96.8321 10.3811C96.5914 9.9 96.2502 9.52942 95.808 9.26935C95.3659 9.00278 94.8588 8.8695 94.2867 8.8695C93.7211 8.8695 93.2172 9.00278 92.775 9.26935C92.3395 9.52942 92.0013 9.9 91.7608 10.3811C91.5202 10.8622 91.4032 11.4149 91.4097 12.039C91.4097 12.6567 91.53 13.2061 91.7705 13.6872C92.0176 14.1618 92.3556 14.5324 92.7848 14.799C93.2204 15.059 93.7211 15.1891 94.2867 15.1891ZM102.84 6.65575H99.8749L103.083 17.403H105.678L107.788 10.5387L110.066 17.403H112.621L115.84 6.65575H113.158L111.332 13.3452L109.315 6.65575H106.721L104.713 13.4925L102.84 6.65575Z" fill="black"/>
</svg>
