<svg width="24" height="25" viewBox="0 0 24 25" fill="none" xmlns="http://www.w3.org/2000/svg">
<path d="M21.5931 7.21607C21.4792 6.79347 21.2566 6.40807 20.9475 6.09824C20.6383 5.7884 20.2534 5.56493 19.8311 5.45007C18.2651 5.02007 12.0001 5.01307 12.0001 5.01307C12.0001 5.01307 5.73609 5.00607 4.16909 5.41707C3.74701 5.53722 3.36291 5.76385 3.05365 6.0752C2.7444 6.38656 2.52037 6.77219 2.40309 7.19507C1.99009 8.76107 1.98609 12.0091 1.98609 12.0091C1.98609 12.0091 1.98209 15.2731 2.39209 16.8231C2.62209 17.6801 3.29709 18.3571 4.15509 18.5881C5.73709 19.0181 11.9851 19.0251 11.9851 19.0251C11.9851 19.0251 18.2501 19.0321 19.8161 18.6221C20.2386 18.5074 20.6238 18.2845 20.9337 17.9753C21.2436 17.666 21.4675 17.2813 21.5831 16.8591C21.9971 15.2941 22.0001 12.0471 22.0001 12.0471C22.0001 12.0471 22.0201 8.78207 21.5931 7.21607ZM9.99609 15.0181L10.0011 9.01807L15.2081 12.0231L9.99609 15.0181Z" fill="black"/>
</svg>
